<mxfile host="app.diagrams.net" modified="2022-08-18T09:21:24.173Z" agent="5.0 (Windows NT 10.0; Win64; x64) AppleWebKit/537.36 (KHTML, like Gecko) Chrome/104.0.0.0 Safari/537.36" etag="pPqTRcKooskooKQ9-hzl" version="20.2.3" type="github">
  <diagram id="Lz6swTwkNQlbMHuel7I1" name="Page-1">
    <mxGraphModel dx="1888" dy="489" grid="1" gridSize="10" guides="1" tooltips="1" connect="1" arrows="1" fold="1" page="1" pageScale="1" pageWidth="850" pageHeight="1100" math="0" shadow="0">
      <root>
        <mxCell id="0" />
        <mxCell id="1" parent="0" />
        <mxCell id="iidDDv9mAEIn2TM6ye5m-1" value="" style="shape=table;startSize=0;container=1;collapsible=0;childLayout=tableLayout;" vertex="1" parent="1">
          <mxGeometry x="-721" y="350" width="681" height="40" as="geometry" />
        </mxCell>
        <mxCell id="iidDDv9mAEIn2TM6ye5m-2" value="" style="shape=tableRow;horizontal=0;startSize=0;swimlaneHead=0;swimlaneBody=0;top=0;left=0;bottom=0;right=0;collapsible=0;dropTarget=0;fillColor=none;points=[[0,0.5],[1,0.5]];portConstraint=eastwest;" vertex="1" parent="iidDDv9mAEIn2TM6ye5m-1">
          <mxGeometry width="681" height="40" as="geometry" />
        </mxCell>
        <mxCell id="iidDDv9mAEIn2TM6ye5m-3" value="6&lt;br&gt;3" style="shape=partialRectangle;html=1;whiteSpace=wrap;connectable=0;overflow=hidden;fillColor=none;top=0;left=0;bottom=0;right=0;pointerEvents=1;" vertex="1" parent="iidDDv9mAEIn2TM6ye5m-2">
          <mxGeometry width="11" height="40" as="geometry">
            <mxRectangle width="11" height="40" as="alternateBounds" />
          </mxGeometry>
        </mxCell>
        <mxCell id="iidDDv9mAEIn2TM6ye5m-4" style="shape=partialRectangle;html=1;whiteSpace=wrap;connectable=0;overflow=hidden;fillColor=none;top=0;left=0;bottom=0;right=0;pointerEvents=1;" vertex="1" parent="iidDDv9mAEIn2TM6ye5m-2">
          <mxGeometry x="11" width="10" height="40" as="geometry">
            <mxRectangle width="10" height="40" as="alternateBounds" />
          </mxGeometry>
        </mxCell>
        <mxCell id="iidDDv9mAEIn2TM6ye5m-5" style="shape=partialRectangle;html=1;whiteSpace=wrap;connectable=0;overflow=hidden;fillColor=none;top=0;left=0;bottom=0;right=0;pointerEvents=1;" vertex="1" parent="iidDDv9mAEIn2TM6ye5m-2">
          <mxGeometry x="21" width="11" height="40" as="geometry">
            <mxRectangle width="11" height="40" as="alternateBounds" />
          </mxGeometry>
        </mxCell>
        <mxCell id="iidDDv9mAEIn2TM6ye5m-6" style="shape=partialRectangle;html=1;whiteSpace=wrap;connectable=0;overflow=hidden;fillColor=none;top=0;left=0;bottom=0;right=0;pointerEvents=1;" vertex="1" parent="iidDDv9mAEIn2TM6ye5m-2">
          <mxGeometry x="32" width="12" height="40" as="geometry">
            <mxRectangle width="12" height="40" as="alternateBounds" />
          </mxGeometry>
        </mxCell>
        <mxCell id="iidDDv9mAEIn2TM6ye5m-7" style="shape=partialRectangle;html=1;whiteSpace=wrap;connectable=0;overflow=hidden;fillColor=none;top=0;left=0;bottom=0;right=0;pointerEvents=1;" vertex="1" parent="iidDDv9mAEIn2TM6ye5m-2">
          <mxGeometry x="44" width="10" height="40" as="geometry">
            <mxRectangle width="10" height="40" as="alternateBounds" />
          </mxGeometry>
        </mxCell>
        <mxCell id="iidDDv9mAEIn2TM6ye5m-8" style="shape=partialRectangle;html=1;whiteSpace=wrap;connectable=0;overflow=hidden;fillColor=none;top=0;left=0;bottom=0;right=0;pointerEvents=1;" vertex="1" parent="iidDDv9mAEIn2TM6ye5m-2">
          <mxGeometry x="54" width="11" height="40" as="geometry">
            <mxRectangle width="11" height="40" as="alternateBounds" />
          </mxGeometry>
        </mxCell>
        <mxCell id="iidDDv9mAEIn2TM6ye5m-9" style="shape=partialRectangle;html=1;whiteSpace=wrap;connectable=0;overflow=hidden;fillColor=none;top=0;left=0;bottom=0;right=0;pointerEvents=1;" vertex="1" parent="iidDDv9mAEIn2TM6ye5m-2">
          <mxGeometry x="65" width="11" height="40" as="geometry">
            <mxRectangle width="11" height="40" as="alternateBounds" />
          </mxGeometry>
        </mxCell>
        <mxCell id="iidDDv9mAEIn2TM6ye5m-10" style="shape=partialRectangle;html=1;whiteSpace=wrap;connectable=0;overflow=hidden;fillColor=none;top=0;left=0;bottom=0;right=0;pointerEvents=1;" vertex="1" parent="iidDDv9mAEIn2TM6ye5m-2">
          <mxGeometry x="76" width="10" height="40" as="geometry">
            <mxRectangle width="10" height="40" as="alternateBounds" />
          </mxGeometry>
        </mxCell>
        <mxCell id="iidDDv9mAEIn2TM6ye5m-11" style="shape=partialRectangle;html=1;whiteSpace=wrap;connectable=0;overflow=hidden;fillColor=none;top=0;left=0;bottom=0;right=0;pointerEvents=1;" vertex="1" parent="iidDDv9mAEIn2TM6ye5m-2">
          <mxGeometry x="86" width="11" height="40" as="geometry">
            <mxRectangle width="11" height="40" as="alternateBounds" />
          </mxGeometry>
        </mxCell>
        <mxCell id="iidDDv9mAEIn2TM6ye5m-12" style="shape=partialRectangle;html=1;whiteSpace=wrap;connectable=0;overflow=hidden;fillColor=none;top=0;left=0;bottom=0;right=0;pointerEvents=1;" vertex="1" parent="iidDDv9mAEIn2TM6ye5m-2">
          <mxGeometry x="97" width="12" height="40" as="geometry">
            <mxRectangle width="12" height="40" as="alternateBounds" />
          </mxGeometry>
        </mxCell>
        <mxCell id="iidDDv9mAEIn2TM6ye5m-13" style="shape=partialRectangle;html=1;whiteSpace=wrap;connectable=0;overflow=hidden;fillColor=none;top=0;left=0;bottom=0;right=0;pointerEvents=1;" vertex="1" parent="iidDDv9mAEIn2TM6ye5m-2">
          <mxGeometry x="109" width="10" height="40" as="geometry">
            <mxRectangle width="10" height="40" as="alternateBounds" />
          </mxGeometry>
        </mxCell>
        <mxCell id="iidDDv9mAEIn2TM6ye5m-14" style="shape=partialRectangle;html=1;whiteSpace=wrap;connectable=0;overflow=hidden;fillColor=none;top=0;left=0;bottom=0;right=0;pointerEvents=1;" vertex="1" parent="iidDDv9mAEIn2TM6ye5m-2">
          <mxGeometry x="119" width="12" height="40" as="geometry">
            <mxRectangle width="12" height="40" as="alternateBounds" />
          </mxGeometry>
        </mxCell>
        <mxCell id="iidDDv9mAEIn2TM6ye5m-15" style="shape=partialRectangle;html=1;whiteSpace=wrap;connectable=0;overflow=hidden;fillColor=none;top=0;left=0;bottom=0;right=0;pointerEvents=1;" vertex="1" parent="iidDDv9mAEIn2TM6ye5m-2">
          <mxGeometry x="131" width="11" height="40" as="geometry">
            <mxRectangle width="11" height="40" as="alternateBounds" />
          </mxGeometry>
        </mxCell>
        <mxCell id="iidDDv9mAEIn2TM6ye5m-16" style="shape=partialRectangle;html=1;whiteSpace=wrap;connectable=0;overflow=hidden;fillColor=none;top=0;left=0;bottom=0;right=0;pointerEvents=1;" vertex="1" parent="iidDDv9mAEIn2TM6ye5m-2">
          <mxGeometry x="142" width="10" height="40" as="geometry">
            <mxRectangle width="10" height="40" as="alternateBounds" />
          </mxGeometry>
        </mxCell>
        <mxCell id="iidDDv9mAEIn2TM6ye5m-17" style="shape=partialRectangle;html=1;whiteSpace=wrap;connectable=0;overflow=hidden;fillColor=none;top=0;left=0;bottom=0;right=0;pointerEvents=1;" vertex="1" parent="iidDDv9mAEIn2TM6ye5m-2">
          <mxGeometry x="152" width="9" height="40" as="geometry">
            <mxRectangle width="9" height="40" as="alternateBounds" />
          </mxGeometry>
        </mxCell>
        <mxCell id="iidDDv9mAEIn2TM6ye5m-18" style="shape=partialRectangle;html=1;whiteSpace=wrap;connectable=0;overflow=hidden;fillColor=none;top=0;left=0;bottom=0;right=0;pointerEvents=1;" vertex="1" parent="iidDDv9mAEIn2TM6ye5m-2">
          <mxGeometry x="161" width="12" height="40" as="geometry">
            <mxRectangle width="12" height="40" as="alternateBounds" />
          </mxGeometry>
        </mxCell>
        <mxCell id="iidDDv9mAEIn2TM6ye5m-19" style="shape=partialRectangle;html=1;whiteSpace=wrap;connectable=0;overflow=hidden;fillColor=none;top=0;left=0;bottom=0;right=0;pointerEvents=1;" vertex="1" parent="iidDDv9mAEIn2TM6ye5m-2">
          <mxGeometry x="173" width="12" height="40" as="geometry">
            <mxRectangle width="12" height="40" as="alternateBounds" />
          </mxGeometry>
        </mxCell>
        <mxCell id="iidDDv9mAEIn2TM6ye5m-20" style="shape=partialRectangle;html=1;whiteSpace=wrap;connectable=0;overflow=hidden;fillColor=none;top=0;left=0;bottom=0;right=0;pointerEvents=1;" vertex="1" parent="iidDDv9mAEIn2TM6ye5m-2">
          <mxGeometry x="185" width="10" height="40" as="geometry">
            <mxRectangle width="10" height="40" as="alternateBounds" />
          </mxGeometry>
        </mxCell>
        <mxCell id="iidDDv9mAEIn2TM6ye5m-21" style="shape=partialRectangle;html=1;whiteSpace=wrap;connectable=0;overflow=hidden;fillColor=none;top=0;left=0;bottom=0;right=0;pointerEvents=1;" vertex="1" parent="iidDDv9mAEIn2TM6ye5m-2">
          <mxGeometry x="195" width="11" height="40" as="geometry">
            <mxRectangle width="11" height="40" as="alternateBounds" />
          </mxGeometry>
        </mxCell>
        <mxCell id="iidDDv9mAEIn2TM6ye5m-22" style="shape=partialRectangle;html=1;whiteSpace=wrap;connectable=0;overflow=hidden;fillColor=none;top=0;left=0;bottom=0;right=0;pointerEvents=1;" vertex="1" parent="iidDDv9mAEIn2TM6ye5m-2">
          <mxGeometry x="206" width="10" height="40" as="geometry">
            <mxRectangle width="10" height="40" as="alternateBounds" />
          </mxGeometry>
        </mxCell>
        <mxCell id="iidDDv9mAEIn2TM6ye5m-23" style="shape=partialRectangle;html=1;whiteSpace=wrap;connectable=0;overflow=hidden;fillColor=none;top=0;left=0;bottom=0;right=0;pointerEvents=1;" vertex="1" parent="iidDDv9mAEIn2TM6ye5m-2">
          <mxGeometry x="216" width="10" height="40" as="geometry">
            <mxRectangle width="10" height="40" as="alternateBounds" />
          </mxGeometry>
        </mxCell>
        <mxCell id="iidDDv9mAEIn2TM6ye5m-24" style="shape=partialRectangle;html=1;whiteSpace=wrap;connectable=0;overflow=hidden;fillColor=none;top=0;left=0;bottom=0;right=0;pointerEvents=1;" vertex="1" parent="iidDDv9mAEIn2TM6ye5m-2">
          <mxGeometry x="226" width="13" height="40" as="geometry">
            <mxRectangle width="13" height="40" as="alternateBounds" />
          </mxGeometry>
        </mxCell>
        <mxCell id="iidDDv9mAEIn2TM6ye5m-25" style="shape=partialRectangle;html=1;whiteSpace=wrap;connectable=0;overflow=hidden;fillColor=none;top=0;left=0;bottom=0;right=0;pointerEvents=1;" vertex="1" parent="iidDDv9mAEIn2TM6ye5m-2">
          <mxGeometry x="239" width="11" height="40" as="geometry">
            <mxRectangle width="11" height="40" as="alternateBounds" />
          </mxGeometry>
        </mxCell>
        <mxCell id="iidDDv9mAEIn2TM6ye5m-26" style="shape=partialRectangle;html=1;whiteSpace=wrap;connectable=0;overflow=hidden;fillColor=none;top=0;left=0;bottom=0;right=0;pointerEvents=1;" vertex="1" parent="iidDDv9mAEIn2TM6ye5m-2">
          <mxGeometry x="250" width="10" height="40" as="geometry">
            <mxRectangle width="10" height="40" as="alternateBounds" />
          </mxGeometry>
        </mxCell>
        <mxCell id="iidDDv9mAEIn2TM6ye5m-27" style="shape=partialRectangle;html=1;whiteSpace=wrap;connectable=0;overflow=hidden;fillColor=none;top=0;left=0;bottom=0;right=0;pointerEvents=1;" vertex="1" parent="iidDDv9mAEIn2TM6ye5m-2">
          <mxGeometry x="260" width="11" height="40" as="geometry">
            <mxRectangle width="11" height="40" as="alternateBounds" />
          </mxGeometry>
        </mxCell>
        <mxCell id="iidDDv9mAEIn2TM6ye5m-28" style="shape=partialRectangle;html=1;whiteSpace=wrap;connectable=0;overflow=hidden;fillColor=none;top=0;left=0;bottom=0;right=0;pointerEvents=1;" vertex="1" parent="iidDDv9mAEIn2TM6ye5m-2">
          <mxGeometry x="271" width="10" height="40" as="geometry">
            <mxRectangle width="10" height="40" as="alternateBounds" />
          </mxGeometry>
        </mxCell>
        <mxCell id="iidDDv9mAEIn2TM6ye5m-29" style="shape=partialRectangle;html=1;whiteSpace=wrap;connectable=0;overflow=hidden;fillColor=none;top=0;left=0;bottom=0;right=0;pointerEvents=1;" vertex="1" parent="iidDDv9mAEIn2TM6ye5m-2">
          <mxGeometry x="281" width="11" height="40" as="geometry">
            <mxRectangle width="11" height="40" as="alternateBounds" />
          </mxGeometry>
        </mxCell>
        <mxCell id="iidDDv9mAEIn2TM6ye5m-30" style="shape=partialRectangle;html=1;whiteSpace=wrap;connectable=0;overflow=hidden;fillColor=none;top=0;left=0;bottom=0;right=0;pointerEvents=1;" vertex="1" parent="iidDDv9mAEIn2TM6ye5m-2">
          <mxGeometry x="292" width="11" height="40" as="geometry">
            <mxRectangle width="11" height="40" as="alternateBounds" />
          </mxGeometry>
        </mxCell>
        <mxCell id="iidDDv9mAEIn2TM6ye5m-31" style="shape=partialRectangle;html=1;whiteSpace=wrap;connectable=0;overflow=hidden;fillColor=none;top=0;left=0;bottom=0;right=0;pointerEvents=1;" vertex="1" parent="iidDDv9mAEIn2TM6ye5m-2">
          <mxGeometry x="303" width="12" height="40" as="geometry">
            <mxRectangle width="12" height="40" as="alternateBounds" />
          </mxGeometry>
        </mxCell>
        <mxCell id="iidDDv9mAEIn2TM6ye5m-32" style="shape=partialRectangle;html=1;whiteSpace=wrap;connectable=0;overflow=hidden;fillColor=none;top=0;left=0;bottom=0;right=0;pointerEvents=1;" vertex="1" parent="iidDDv9mAEIn2TM6ye5m-2">
          <mxGeometry x="315" width="10" height="40" as="geometry">
            <mxRectangle width="10" height="40" as="alternateBounds" />
          </mxGeometry>
        </mxCell>
        <mxCell id="iidDDv9mAEIn2TM6ye5m-33" style="shape=partialRectangle;html=1;whiteSpace=wrap;connectable=0;overflow=hidden;fillColor=none;top=0;left=0;bottom=0;right=0;pointerEvents=1;" vertex="1" parent="iidDDv9mAEIn2TM6ye5m-2">
          <mxGeometry x="325" width="11" height="40" as="geometry">
            <mxRectangle width="11" height="40" as="alternateBounds" />
          </mxGeometry>
        </mxCell>
        <mxCell id="iidDDv9mAEIn2TM6ye5m-34" style="shape=partialRectangle;html=1;whiteSpace=wrap;connectable=0;overflow=hidden;fillColor=none;top=0;left=0;bottom=0;right=0;pointerEvents=1;" vertex="1" parent="iidDDv9mAEIn2TM6ye5m-2">
          <mxGeometry x="336" width="11" height="40" as="geometry">
            <mxRectangle width="11" height="40" as="alternateBounds" />
          </mxGeometry>
        </mxCell>
        <mxCell id="iidDDv9mAEIn2TM6ye5m-35" style="shape=partialRectangle;html=1;whiteSpace=wrap;connectable=0;overflow=hidden;fillColor=none;top=0;left=0;bottom=0;right=0;pointerEvents=1;" vertex="1" parent="iidDDv9mAEIn2TM6ye5m-2">
          <mxGeometry x="347" width="10" height="40" as="geometry">
            <mxRectangle width="10" height="40" as="alternateBounds" />
          </mxGeometry>
        </mxCell>
        <mxCell id="iidDDv9mAEIn2TM6ye5m-36" style="shape=partialRectangle;html=1;whiteSpace=wrap;connectable=0;overflow=hidden;fillColor=none;top=0;left=0;bottom=0;right=0;pointerEvents=1;" vertex="1" parent="iidDDv9mAEIn2TM6ye5m-2">
          <mxGeometry x="357" width="11" height="40" as="geometry">
            <mxRectangle width="11" height="40" as="alternateBounds" />
          </mxGeometry>
        </mxCell>
        <mxCell id="iidDDv9mAEIn2TM6ye5m-37" style="shape=partialRectangle;html=1;whiteSpace=wrap;connectable=0;overflow=hidden;fillColor=none;top=0;left=0;bottom=0;right=0;pointerEvents=1;" vertex="1" parent="iidDDv9mAEIn2TM6ye5m-2">
          <mxGeometry x="368" width="12" height="40" as="geometry">
            <mxRectangle width="12" height="40" as="alternateBounds" />
          </mxGeometry>
        </mxCell>
        <mxCell id="iidDDv9mAEIn2TM6ye5m-38" style="shape=partialRectangle;html=1;whiteSpace=wrap;connectable=0;overflow=hidden;fillColor=none;top=0;left=0;bottom=0;right=0;pointerEvents=1;" vertex="1" parent="iidDDv9mAEIn2TM6ye5m-2">
          <mxGeometry x="380" width="11" height="40" as="geometry">
            <mxRectangle width="11" height="40" as="alternateBounds" />
          </mxGeometry>
        </mxCell>
        <mxCell id="iidDDv9mAEIn2TM6ye5m-39" value="" style="shape=partialRectangle;html=1;whiteSpace=wrap;connectable=0;overflow=hidden;fillColor=none;top=0;left=0;bottom=0;right=0;pointerEvents=1;" vertex="1" parent="iidDDv9mAEIn2TM6ye5m-2">
          <mxGeometry x="391" width="10" height="40" as="geometry">
            <mxRectangle width="10" height="40" as="alternateBounds" />
          </mxGeometry>
        </mxCell>
        <mxCell id="iidDDv9mAEIn2TM6ye5m-40" value="" style="shape=partialRectangle;html=1;whiteSpace=wrap;connectable=0;overflow=hidden;fillColor=none;top=0;left=0;bottom=0;right=0;pointerEvents=1;" vertex="1" parent="iidDDv9mAEIn2TM6ye5m-2">
          <mxGeometry x="401" width="10" height="40" as="geometry">
            <mxRectangle width="10" height="40" as="alternateBounds" />
          </mxGeometry>
        </mxCell>
        <mxCell id="iidDDv9mAEIn2TM6ye5m-41" value="" style="shape=partialRectangle;html=1;whiteSpace=wrap;connectable=0;overflow=hidden;fillColor=none;top=0;left=0;bottom=0;right=0;pointerEvents=1;" vertex="1" parent="iidDDv9mAEIn2TM6ye5m-2">
          <mxGeometry x="411" width="11" height="40" as="geometry">
            <mxRectangle width="11" height="40" as="alternateBounds" />
          </mxGeometry>
        </mxCell>
        <mxCell id="iidDDv9mAEIn2TM6ye5m-42" value="" style="shape=partialRectangle;html=1;whiteSpace=wrap;connectable=0;overflow=hidden;fillColor=none;top=0;left=0;bottom=0;right=0;pointerEvents=1;" vertex="1" parent="iidDDv9mAEIn2TM6ye5m-2">
          <mxGeometry x="422" width="9" height="40" as="geometry">
            <mxRectangle width="9" height="40" as="alternateBounds" />
          </mxGeometry>
        </mxCell>
        <mxCell id="iidDDv9mAEIn2TM6ye5m-43" value="" style="shape=partialRectangle;html=1;whiteSpace=wrap;connectable=0;overflow=hidden;fillColor=none;top=0;left=0;bottom=0;right=0;pointerEvents=1;" vertex="1" parent="iidDDv9mAEIn2TM6ye5m-2">
          <mxGeometry x="431" width="13" height="40" as="geometry">
            <mxRectangle width="13" height="40" as="alternateBounds" />
          </mxGeometry>
        </mxCell>
        <mxCell id="iidDDv9mAEIn2TM6ye5m-44" value="" style="shape=partialRectangle;html=1;whiteSpace=wrap;connectable=0;overflow=hidden;fillColor=none;top=0;left=0;bottom=0;right=0;pointerEvents=1;" vertex="1" parent="iidDDv9mAEIn2TM6ye5m-2">
          <mxGeometry x="444" width="10" height="40" as="geometry">
            <mxRectangle width="10" height="40" as="alternateBounds" />
          </mxGeometry>
        </mxCell>
        <mxCell id="iidDDv9mAEIn2TM6ye5m-45" value="" style="shape=partialRectangle;html=1;whiteSpace=wrap;connectable=0;overflow=hidden;fillColor=none;top=0;left=0;bottom=0;right=0;pointerEvents=1;" vertex="1" parent="iidDDv9mAEIn2TM6ye5m-2">
          <mxGeometry x="454" width="10" height="40" as="geometry">
            <mxRectangle width="10" height="40" as="alternateBounds" />
          </mxGeometry>
        </mxCell>
        <mxCell id="iidDDv9mAEIn2TM6ye5m-46" value="" style="shape=partialRectangle;html=1;whiteSpace=wrap;connectable=0;overflow=hidden;fillColor=none;top=0;left=0;bottom=0;right=0;pointerEvents=1;" vertex="1" parent="iidDDv9mAEIn2TM6ye5m-2">
          <mxGeometry x="464" width="10" height="40" as="geometry">
            <mxRectangle width="10" height="40" as="alternateBounds" />
          </mxGeometry>
        </mxCell>
        <mxCell id="iidDDv9mAEIn2TM6ye5m-47" value="" style="shape=partialRectangle;html=1;whiteSpace=wrap;connectable=0;overflow=hidden;fillColor=none;top=0;left=0;bottom=0;right=0;pointerEvents=1;" vertex="1" parent="iidDDv9mAEIn2TM6ye5m-2">
          <mxGeometry x="474" width="11" height="40" as="geometry">
            <mxRectangle width="11" height="40" as="alternateBounds" />
          </mxGeometry>
        </mxCell>
        <mxCell id="iidDDv9mAEIn2TM6ye5m-48" value="" style="shape=partialRectangle;html=1;whiteSpace=wrap;connectable=0;overflow=hidden;fillColor=none;top=0;left=0;bottom=0;right=0;pointerEvents=1;" vertex="1" parent="iidDDv9mAEIn2TM6ye5m-2">
          <mxGeometry x="485" width="10" height="40" as="geometry">
            <mxRectangle width="10" height="40" as="alternateBounds" />
          </mxGeometry>
        </mxCell>
        <mxCell id="iidDDv9mAEIn2TM6ye5m-49" value="" style="shape=partialRectangle;html=1;whiteSpace=wrap;connectable=0;overflow=hidden;fillColor=none;top=0;left=0;bottom=0;right=0;pointerEvents=1;" vertex="1" parent="iidDDv9mAEIn2TM6ye5m-2">
          <mxGeometry x="495" width="10" height="40" as="geometry">
            <mxRectangle width="10" height="40" as="alternateBounds" />
          </mxGeometry>
        </mxCell>
        <mxCell id="iidDDv9mAEIn2TM6ye5m-50" value="" style="shape=partialRectangle;html=1;whiteSpace=wrap;connectable=0;overflow=hidden;fillColor=none;top=0;left=0;bottom=0;right=0;pointerEvents=1;" vertex="1" parent="iidDDv9mAEIn2TM6ye5m-2">
          <mxGeometry x="505" width="12" height="40" as="geometry">
            <mxRectangle width="12" height="40" as="alternateBounds" />
          </mxGeometry>
        </mxCell>
        <mxCell id="iidDDv9mAEIn2TM6ye5m-51" value="" style="shape=partialRectangle;html=1;whiteSpace=wrap;connectable=0;overflow=hidden;fillColor=none;top=0;left=0;bottom=0;right=0;pointerEvents=1;" vertex="1" parent="iidDDv9mAEIn2TM6ye5m-2">
          <mxGeometry x="517" width="10" height="40" as="geometry">
            <mxRectangle width="10" height="40" as="alternateBounds" />
          </mxGeometry>
        </mxCell>
        <mxCell id="iidDDv9mAEIn2TM6ye5m-52" value="" style="shape=partialRectangle;html=1;whiteSpace=wrap;connectable=0;overflow=hidden;fillColor=none;top=0;left=0;bottom=0;right=0;pointerEvents=1;" vertex="1" parent="iidDDv9mAEIn2TM6ye5m-2">
          <mxGeometry x="527" width="9" height="40" as="geometry">
            <mxRectangle width="9" height="40" as="alternateBounds" />
          </mxGeometry>
        </mxCell>
        <mxCell id="iidDDv9mAEIn2TM6ye5m-53" value="" style="shape=partialRectangle;html=1;whiteSpace=wrap;connectable=0;overflow=hidden;fillColor=none;top=0;left=0;bottom=0;right=0;pointerEvents=1;" vertex="1" parent="iidDDv9mAEIn2TM6ye5m-2">
          <mxGeometry x="536" width="12" height="40" as="geometry">
            <mxRectangle width="12" height="40" as="alternateBounds" />
          </mxGeometry>
        </mxCell>
        <mxCell id="iidDDv9mAEIn2TM6ye5m-54" value="" style="shape=partialRectangle;html=1;whiteSpace=wrap;connectable=0;overflow=hidden;fillColor=none;top=0;left=0;bottom=0;right=0;pointerEvents=1;" vertex="1" parent="iidDDv9mAEIn2TM6ye5m-2">
          <mxGeometry x="548" width="10" height="40" as="geometry">
            <mxRectangle width="10" height="40" as="alternateBounds" />
          </mxGeometry>
        </mxCell>
        <mxCell id="iidDDv9mAEIn2TM6ye5m-55" value="" style="shape=partialRectangle;html=1;whiteSpace=wrap;connectable=0;overflow=hidden;fillColor=none;top=0;left=0;bottom=0;right=0;pointerEvents=1;" vertex="1" parent="iidDDv9mAEIn2TM6ye5m-2">
          <mxGeometry x="558" width="10" height="40" as="geometry">
            <mxRectangle width="10" height="40" as="alternateBounds" />
          </mxGeometry>
        </mxCell>
        <mxCell id="iidDDv9mAEIn2TM6ye5m-56" value="" style="shape=partialRectangle;html=1;whiteSpace=wrap;connectable=0;overflow=hidden;fillColor=none;top=0;left=0;bottom=0;right=0;pointerEvents=1;" vertex="1" parent="iidDDv9mAEIn2TM6ye5m-2">
          <mxGeometry x="568" width="10" height="40" as="geometry">
            <mxRectangle width="10" height="40" as="alternateBounds" />
          </mxGeometry>
        </mxCell>
        <mxCell id="iidDDv9mAEIn2TM6ye5m-57" value="" style="shape=partialRectangle;html=1;whiteSpace=wrap;connectable=0;overflow=hidden;fillColor=none;top=0;left=0;bottom=0;right=0;pointerEvents=1;" vertex="1" parent="iidDDv9mAEIn2TM6ye5m-2">
          <mxGeometry x="578" width="12" height="40" as="geometry">
            <mxRectangle width="12" height="40" as="alternateBounds" />
          </mxGeometry>
        </mxCell>
        <mxCell id="iidDDv9mAEIn2TM6ye5m-58" value="" style="shape=partialRectangle;html=1;whiteSpace=wrap;connectable=0;overflow=hidden;fillColor=none;top=0;left=0;bottom=0;right=0;pointerEvents=1;" vertex="1" parent="iidDDv9mAEIn2TM6ye5m-2">
          <mxGeometry x="590" width="10" height="40" as="geometry">
            <mxRectangle width="10" height="40" as="alternateBounds" />
          </mxGeometry>
        </mxCell>
        <mxCell id="iidDDv9mAEIn2TM6ye5m-59" style="shape=partialRectangle;html=1;whiteSpace=wrap;connectable=0;overflow=hidden;fillColor=none;top=0;left=0;bottom=0;right=0;pointerEvents=1;" vertex="1" parent="iidDDv9mAEIn2TM6ye5m-2">
          <mxGeometry x="600" width="10" height="40" as="geometry">
            <mxRectangle width="10" height="40" as="alternateBounds" />
          </mxGeometry>
        </mxCell>
        <mxCell id="iidDDv9mAEIn2TM6ye5m-60" style="shape=partialRectangle;html=1;whiteSpace=wrap;connectable=0;overflow=hidden;fillColor=none;top=0;left=0;bottom=0;right=0;pointerEvents=1;" vertex="1" parent="iidDDv9mAEIn2TM6ye5m-2">
          <mxGeometry x="610" width="10" height="40" as="geometry">
            <mxRectangle width="10" height="40" as="alternateBounds" />
          </mxGeometry>
        </mxCell>
        <mxCell id="iidDDv9mAEIn2TM6ye5m-61" style="shape=partialRectangle;html=1;whiteSpace=wrap;connectable=0;overflow=hidden;fillColor=none;top=0;left=0;bottom=0;right=0;pointerEvents=1;" vertex="1" parent="iidDDv9mAEIn2TM6ye5m-2">
          <mxGeometry x="620" width="10" height="40" as="geometry">
            <mxRectangle width="10" height="40" as="alternateBounds" />
          </mxGeometry>
        </mxCell>
        <mxCell id="iidDDv9mAEIn2TM6ye5m-62" style="shape=partialRectangle;html=1;whiteSpace=wrap;connectable=0;overflow=hidden;fillColor=none;top=0;left=0;bottom=0;right=0;pointerEvents=1;" vertex="1" parent="iidDDv9mAEIn2TM6ye5m-2">
          <mxGeometry x="630" width="10" height="40" as="geometry">
            <mxRectangle width="10" height="40" as="alternateBounds" />
          </mxGeometry>
        </mxCell>
        <mxCell id="iidDDv9mAEIn2TM6ye5m-63" style="shape=partialRectangle;html=1;whiteSpace=wrap;connectable=0;overflow=hidden;fillColor=none;top=0;left=0;bottom=0;right=0;pointerEvents=1;" vertex="1" parent="iidDDv9mAEIn2TM6ye5m-2">
          <mxGeometry x="640" width="12" height="40" as="geometry">
            <mxRectangle width="12" height="40" as="alternateBounds" />
          </mxGeometry>
        </mxCell>
        <mxCell id="iidDDv9mAEIn2TM6ye5m-64" style="shape=partialRectangle;html=1;whiteSpace=wrap;connectable=0;overflow=hidden;fillColor=none;top=0;left=0;bottom=0;right=0;pointerEvents=1;" vertex="1" parent="iidDDv9mAEIn2TM6ye5m-2">
          <mxGeometry x="652" width="10" height="40" as="geometry">
            <mxRectangle width="10" height="40" as="alternateBounds" />
          </mxGeometry>
        </mxCell>
        <mxCell id="iidDDv9mAEIn2TM6ye5m-65" style="shape=partialRectangle;html=1;whiteSpace=wrap;connectable=0;overflow=hidden;fillColor=none;top=0;left=0;bottom=0;right=0;pointerEvents=1;" vertex="1" parent="iidDDv9mAEIn2TM6ye5m-2">
          <mxGeometry x="662" width="9" height="40" as="geometry">
            <mxRectangle width="9" height="40" as="alternateBounds" />
          </mxGeometry>
        </mxCell>
        <mxCell id="iidDDv9mAEIn2TM6ye5m-66" value="0" style="shape=partialRectangle;html=1;whiteSpace=wrap;connectable=0;overflow=hidden;fillColor=none;top=0;left=0;bottom=0;right=0;pointerEvents=1;" vertex="1" parent="iidDDv9mAEIn2TM6ye5m-2">
          <mxGeometry x="671" width="10" height="40" as="geometry">
            <mxRectangle width="10" height="40" as="alternateBounds" />
          </mxGeometry>
        </mxCell>
        <mxCell id="iidDDv9mAEIn2TM6ye5m-67" value="" style="shape=table;startSize=0;container=1;collapsible=0;childLayout=tableLayout;" vertex="1" parent="1">
          <mxGeometry x="-720" y="470" width="681" height="40" as="geometry" />
        </mxCell>
        <mxCell id="iidDDv9mAEIn2TM6ye5m-68" value="" style="shape=tableRow;horizontal=0;startSize=0;swimlaneHead=0;swimlaneBody=0;top=0;left=0;bottom=0;right=0;collapsible=0;dropTarget=0;fillColor=none;points=[[0,0.5],[1,0.5]];portConstraint=eastwest;" vertex="1" parent="iidDDv9mAEIn2TM6ye5m-67">
          <mxGeometry width="681" height="40" as="geometry" />
        </mxCell>
        <mxCell id="iidDDv9mAEIn2TM6ye5m-69" value="6&lt;br&gt;3" style="shape=partialRectangle;html=1;whiteSpace=wrap;connectable=0;overflow=hidden;fillColor=none;top=0;left=0;bottom=0;right=0;pointerEvents=1;" vertex="1" parent="iidDDv9mAEIn2TM6ye5m-68">
          <mxGeometry width="11" height="40" as="geometry">
            <mxRectangle width="11" height="40" as="alternateBounds" />
          </mxGeometry>
        </mxCell>
        <mxCell id="iidDDv9mAEIn2TM6ye5m-70" value="" style="shape=partialRectangle;html=1;whiteSpace=wrap;connectable=0;overflow=hidden;fillColor=none;top=0;left=0;bottom=0;right=0;pointerEvents=1;" vertex="1" parent="iidDDv9mAEIn2TM6ye5m-68">
          <mxGeometry x="11" width="9" height="40" as="geometry">
            <mxRectangle width="9" height="40" as="alternateBounds" />
          </mxGeometry>
        </mxCell>
        <mxCell id="iidDDv9mAEIn2TM6ye5m-71" value="" style="shape=partialRectangle;html=1;whiteSpace=wrap;connectable=0;overflow=hidden;fillColor=none;top=0;left=0;bottom=0;right=0;pointerEvents=1;" vertex="1" parent="iidDDv9mAEIn2TM6ye5m-68">
          <mxGeometry x="20" width="10" height="40" as="geometry">
            <mxRectangle width="10" height="40" as="alternateBounds" />
          </mxGeometry>
        </mxCell>
        <mxCell id="iidDDv9mAEIn2TM6ye5m-72" value="" style="shape=partialRectangle;html=1;whiteSpace=wrap;connectable=0;overflow=hidden;fillColor=none;top=0;left=0;bottom=0;right=0;pointerEvents=1;" vertex="1" parent="iidDDv9mAEIn2TM6ye5m-68">
          <mxGeometry x="30" width="10" height="40" as="geometry">
            <mxRectangle width="10" height="40" as="alternateBounds" />
          </mxGeometry>
        </mxCell>
        <mxCell id="iidDDv9mAEIn2TM6ye5m-73" value="" style="shape=partialRectangle;html=1;whiteSpace=wrap;connectable=0;overflow=hidden;fillColor=none;top=0;left=0;bottom=0;right=0;pointerEvents=1;" vertex="1" parent="iidDDv9mAEIn2TM6ye5m-68">
          <mxGeometry x="40" width="11" height="40" as="geometry">
            <mxRectangle width="11" height="40" as="alternateBounds" />
          </mxGeometry>
        </mxCell>
        <mxCell id="iidDDv9mAEIn2TM6ye5m-74" value="" style="shape=partialRectangle;html=1;whiteSpace=wrap;connectable=0;overflow=hidden;fillColor=none;top=0;left=0;bottom=0;right=0;pointerEvents=1;" vertex="1" parent="iidDDv9mAEIn2TM6ye5m-68">
          <mxGeometry x="51" width="9" height="40" as="geometry">
            <mxRectangle width="9" height="40" as="alternateBounds" />
          </mxGeometry>
        </mxCell>
        <mxCell id="iidDDv9mAEIn2TM6ye5m-75" value="" style="shape=partialRectangle;html=1;whiteSpace=wrap;connectable=0;overflow=hidden;fillColor=none;top=0;left=0;bottom=0;right=0;pointerEvents=1;" vertex="1" parent="iidDDv9mAEIn2TM6ye5m-68">
          <mxGeometry x="60" width="11" height="40" as="geometry">
            <mxRectangle width="11" height="40" as="alternateBounds" />
          </mxGeometry>
        </mxCell>
        <mxCell id="iidDDv9mAEIn2TM6ye5m-76" value="" style="shape=partialRectangle;html=1;whiteSpace=wrap;connectable=0;overflow=hidden;fillColor=none;top=0;left=0;bottom=0;right=0;pointerEvents=1;" vertex="1" parent="iidDDv9mAEIn2TM6ye5m-68">
          <mxGeometry x="71" width="9" height="40" as="geometry">
            <mxRectangle width="9" height="40" as="alternateBounds" />
          </mxGeometry>
        </mxCell>
        <mxCell id="iidDDv9mAEIn2TM6ye5m-77" value="" style="shape=partialRectangle;html=1;whiteSpace=wrap;connectable=0;overflow=hidden;fillColor=none;top=0;left=0;bottom=0;right=0;pointerEvents=1;" vertex="1" parent="iidDDv9mAEIn2TM6ye5m-68">
          <mxGeometry x="80" width="11" height="40" as="geometry">
            <mxRectangle width="11" height="40" as="alternateBounds" />
          </mxGeometry>
        </mxCell>
        <mxCell id="iidDDv9mAEIn2TM6ye5m-78" value="" style="shape=partialRectangle;html=1;whiteSpace=wrap;connectable=0;overflow=hidden;fillColor=none;top=0;left=0;bottom=0;right=0;pointerEvents=1;" vertex="1" parent="iidDDv9mAEIn2TM6ye5m-68">
          <mxGeometry x="91" width="9" height="40" as="geometry">
            <mxRectangle width="9" height="40" as="alternateBounds" />
          </mxGeometry>
        </mxCell>
        <mxCell id="iidDDv9mAEIn2TM6ye5m-79" value="" style="shape=partialRectangle;html=1;whiteSpace=wrap;connectable=0;overflow=hidden;fillColor=none;top=0;left=0;bottom=0;right=0;pointerEvents=1;" vertex="1" parent="iidDDv9mAEIn2TM6ye5m-68">
          <mxGeometry x="100" width="10" height="40" as="geometry">
            <mxRectangle width="10" height="40" as="alternateBounds" />
          </mxGeometry>
        </mxCell>
        <mxCell id="iidDDv9mAEIn2TM6ye5m-80" value="" style="shape=partialRectangle;html=1;whiteSpace=wrap;connectable=0;overflow=hidden;fillColor=none;top=0;left=0;bottom=0;right=0;pointerEvents=1;" vertex="1" parent="iidDDv9mAEIn2TM6ye5m-68">
          <mxGeometry x="110" width="11" height="40" as="geometry">
            <mxRectangle width="11" height="40" as="alternateBounds" />
          </mxGeometry>
        </mxCell>
        <mxCell id="iidDDv9mAEIn2TM6ye5m-81" value="" style="shape=partialRectangle;html=1;whiteSpace=wrap;connectable=0;overflow=hidden;fillColor=none;top=0;left=0;bottom=0;right=0;pointerEvents=1;" vertex="1" parent="iidDDv9mAEIn2TM6ye5m-68">
          <mxGeometry x="121" width="9" height="40" as="geometry">
            <mxRectangle width="9" height="40" as="alternateBounds" />
          </mxGeometry>
        </mxCell>
        <mxCell id="iidDDv9mAEIn2TM6ye5m-82" value="" style="shape=partialRectangle;html=1;whiteSpace=wrap;connectable=0;overflow=hidden;fillColor=none;top=0;left=0;bottom=0;right=0;pointerEvents=1;" vertex="1" parent="iidDDv9mAEIn2TM6ye5m-68">
          <mxGeometry x="130" width="11" height="40" as="geometry">
            <mxRectangle width="11" height="40" as="alternateBounds" />
          </mxGeometry>
        </mxCell>
        <mxCell id="iidDDv9mAEIn2TM6ye5m-83" value="" style="shape=partialRectangle;html=1;whiteSpace=wrap;connectable=0;overflow=hidden;fillColor=none;top=0;left=0;bottom=0;right=0;pointerEvents=1;" vertex="1" parent="iidDDv9mAEIn2TM6ye5m-68">
          <mxGeometry x="141" width="9" height="40" as="geometry">
            <mxRectangle width="9" height="40" as="alternateBounds" />
          </mxGeometry>
        </mxCell>
        <mxCell id="iidDDv9mAEIn2TM6ye5m-84" value="" style="shape=partialRectangle;html=1;whiteSpace=wrap;connectable=0;overflow=hidden;fillColor=none;top=0;left=0;bottom=0;right=0;pointerEvents=1;" vertex="1" parent="iidDDv9mAEIn2TM6ye5m-68">
          <mxGeometry x="150" width="11" height="40" as="geometry">
            <mxRectangle width="11" height="40" as="alternateBounds" />
          </mxGeometry>
        </mxCell>
        <mxCell id="iidDDv9mAEIn2TM6ye5m-85" value="" style="shape=partialRectangle;html=1;whiteSpace=wrap;connectable=0;overflow=hidden;fillColor=none;top=0;left=0;bottom=0;right=0;pointerEvents=1;" vertex="1" parent="iidDDv9mAEIn2TM6ye5m-68">
          <mxGeometry x="161" width="10" height="40" as="geometry">
            <mxRectangle width="10" height="40" as="alternateBounds" />
          </mxGeometry>
        </mxCell>
        <mxCell id="iidDDv9mAEIn2TM6ye5m-86" value="" style="shape=partialRectangle;html=1;whiteSpace=wrap;connectable=0;overflow=hidden;fillColor=none;top=0;left=0;bottom=0;right=0;pointerEvents=1;" vertex="1" parent="iidDDv9mAEIn2TM6ye5m-68">
          <mxGeometry x="171" width="10" height="40" as="geometry">
            <mxRectangle width="10" height="40" as="alternateBounds" />
          </mxGeometry>
        </mxCell>
        <mxCell id="iidDDv9mAEIn2TM6ye5m-87" value="" style="shape=partialRectangle;html=1;whiteSpace=wrap;connectable=0;overflow=hidden;fillColor=none;top=0;left=0;bottom=0;right=0;pointerEvents=1;" vertex="1" parent="iidDDv9mAEIn2TM6ye5m-68">
          <mxGeometry x="181" width="9" height="40" as="geometry">
            <mxRectangle width="9" height="40" as="alternateBounds" />
          </mxGeometry>
        </mxCell>
        <mxCell id="iidDDv9mAEIn2TM6ye5m-88" value="" style="shape=partialRectangle;html=1;whiteSpace=wrap;connectable=0;overflow=hidden;fillColor=none;top=0;left=0;bottom=0;right=0;pointerEvents=1;" vertex="1" parent="iidDDv9mAEIn2TM6ye5m-68">
          <mxGeometry x="190" width="11" height="40" as="geometry">
            <mxRectangle width="11" height="40" as="alternateBounds" />
          </mxGeometry>
        </mxCell>
        <mxCell id="iidDDv9mAEIn2TM6ye5m-89" style="shape=partialRectangle;html=1;whiteSpace=wrap;connectable=0;overflow=hidden;fillColor=none;top=0;left=0;bottom=0;right=0;pointerEvents=1;" vertex="1" parent="iidDDv9mAEIn2TM6ye5m-68">
          <mxGeometry x="201" width="11" height="40" as="geometry">
            <mxRectangle width="11" height="40" as="alternateBounds" />
          </mxGeometry>
        </mxCell>
        <mxCell id="iidDDv9mAEIn2TM6ye5m-90" style="shape=partialRectangle;html=1;whiteSpace=wrap;connectable=0;overflow=hidden;fillColor=none;top=0;left=0;bottom=0;right=0;pointerEvents=1;" vertex="1" parent="iidDDv9mAEIn2TM6ye5m-68">
          <mxGeometry x="212" width="10" height="40" as="geometry">
            <mxRectangle width="10" height="40" as="alternateBounds" />
          </mxGeometry>
        </mxCell>
        <mxCell id="iidDDv9mAEIn2TM6ye5m-91" style="shape=partialRectangle;html=1;whiteSpace=wrap;connectable=0;overflow=hidden;fillColor=none;top=0;left=0;bottom=0;right=0;pointerEvents=1;" vertex="1" parent="iidDDv9mAEIn2TM6ye5m-68">
          <mxGeometry x="222" width="11" height="40" as="geometry">
            <mxRectangle width="11" height="40" as="alternateBounds" />
          </mxGeometry>
        </mxCell>
        <mxCell id="iidDDv9mAEIn2TM6ye5m-92" style="shape=partialRectangle;html=1;whiteSpace=wrap;connectable=0;overflow=hidden;fillColor=none;top=0;left=0;bottom=0;right=0;pointerEvents=1;" vertex="1" parent="iidDDv9mAEIn2TM6ye5m-68">
          <mxGeometry x="233" width="12" height="40" as="geometry">
            <mxRectangle width="12" height="40" as="alternateBounds" />
          </mxGeometry>
        </mxCell>
        <mxCell id="iidDDv9mAEIn2TM6ye5m-93" style="shape=partialRectangle;html=1;whiteSpace=wrap;connectable=0;overflow=hidden;fillColor=none;top=0;left=0;bottom=0;right=0;pointerEvents=1;" vertex="1" parent="iidDDv9mAEIn2TM6ye5m-68">
          <mxGeometry x="245" width="11" height="40" as="geometry">
            <mxRectangle width="11" height="40" as="alternateBounds" />
          </mxGeometry>
        </mxCell>
        <mxCell id="iidDDv9mAEIn2TM6ye5m-94" style="shape=partialRectangle;html=1;whiteSpace=wrap;connectable=0;overflow=hidden;fillColor=none;top=0;left=0;bottom=0;right=0;pointerEvents=1;" vertex="1" parent="iidDDv9mAEIn2TM6ye5m-68">
          <mxGeometry x="256" width="10" height="40" as="geometry">
            <mxRectangle width="10" height="40" as="alternateBounds" />
          </mxGeometry>
        </mxCell>
        <mxCell id="iidDDv9mAEIn2TM6ye5m-95" style="shape=partialRectangle;html=1;whiteSpace=wrap;connectable=0;overflow=hidden;fillColor=none;top=0;left=0;bottom=0;right=0;pointerEvents=1;" vertex="1" parent="iidDDv9mAEIn2TM6ye5m-68">
          <mxGeometry x="266" width="11" height="40" as="geometry">
            <mxRectangle width="11" height="40" as="alternateBounds" />
          </mxGeometry>
        </mxCell>
        <mxCell id="iidDDv9mAEIn2TM6ye5m-96" style="shape=partialRectangle;html=1;whiteSpace=wrap;connectable=0;overflow=hidden;fillColor=none;top=0;left=0;bottom=0;right=0;pointerEvents=1;" vertex="1" parent="iidDDv9mAEIn2TM6ye5m-68">
          <mxGeometry x="277" width="11" height="40" as="geometry">
            <mxRectangle width="11" height="40" as="alternateBounds" />
          </mxGeometry>
        </mxCell>
        <mxCell id="iidDDv9mAEIn2TM6ye5m-97" style="shape=partialRectangle;html=1;whiteSpace=wrap;connectable=0;overflow=hidden;fillColor=none;top=0;left=0;bottom=0;right=0;pointerEvents=1;" vertex="1" parent="iidDDv9mAEIn2TM6ye5m-68">
          <mxGeometry x="288" width="11" height="40" as="geometry">
            <mxRectangle width="11" height="40" as="alternateBounds" />
          </mxGeometry>
        </mxCell>
        <mxCell id="iidDDv9mAEIn2TM6ye5m-98" style="shape=partialRectangle;html=1;whiteSpace=wrap;connectable=0;overflow=hidden;fillColor=none;top=0;left=0;bottom=0;right=0;pointerEvents=1;" vertex="1" parent="iidDDv9mAEIn2TM6ye5m-68">
          <mxGeometry x="299" width="11" height="40" as="geometry">
            <mxRectangle width="11" height="40" as="alternateBounds" />
          </mxGeometry>
        </mxCell>
        <mxCell id="iidDDv9mAEIn2TM6ye5m-99" style="shape=partialRectangle;html=1;whiteSpace=wrap;connectable=0;overflow=hidden;fillColor=none;top=0;left=0;bottom=0;right=0;pointerEvents=1;" vertex="1" parent="iidDDv9mAEIn2TM6ye5m-68">
          <mxGeometry x="310" width="11" height="40" as="geometry">
            <mxRectangle width="11" height="40" as="alternateBounds" />
          </mxGeometry>
        </mxCell>
        <mxCell id="iidDDv9mAEIn2TM6ye5m-100" style="shape=partialRectangle;html=1;whiteSpace=wrap;connectable=0;overflow=hidden;fillColor=none;top=0;left=0;bottom=0;right=0;pointerEvents=1;" vertex="1" parent="iidDDv9mAEIn2TM6ye5m-68">
          <mxGeometry x="321" width="11" height="40" as="geometry">
            <mxRectangle width="11" height="40" as="alternateBounds" />
          </mxGeometry>
        </mxCell>
        <mxCell id="iidDDv9mAEIn2TM6ye5m-101" style="shape=partialRectangle;html=1;whiteSpace=wrap;connectable=0;overflow=hidden;fillColor=none;top=0;left=0;bottom=0;right=0;pointerEvents=1;" vertex="1" parent="iidDDv9mAEIn2TM6ye5m-68">
          <mxGeometry x="332" width="11" height="40" as="geometry">
            <mxRectangle width="11" height="40" as="alternateBounds" />
          </mxGeometry>
        </mxCell>
        <mxCell id="iidDDv9mAEIn2TM6ye5m-102" style="shape=partialRectangle;html=1;whiteSpace=wrap;connectable=0;overflow=hidden;fillColor=none;top=0;left=0;bottom=0;right=0;pointerEvents=1;" vertex="1" parent="iidDDv9mAEIn2TM6ye5m-68">
          <mxGeometry x="343" width="10" height="40" as="geometry">
            <mxRectangle width="10" height="40" as="alternateBounds" />
          </mxGeometry>
        </mxCell>
        <mxCell id="iidDDv9mAEIn2TM6ye5m-103" style="shape=partialRectangle;html=1;whiteSpace=wrap;connectable=0;overflow=hidden;fillColor=none;top=0;left=0;bottom=0;right=0;pointerEvents=1;" vertex="1" parent="iidDDv9mAEIn2TM6ye5m-68">
          <mxGeometry x="353" width="11" height="40" as="geometry">
            <mxRectangle width="11" height="40" as="alternateBounds" />
          </mxGeometry>
        </mxCell>
        <mxCell id="iidDDv9mAEIn2TM6ye5m-104" style="shape=partialRectangle;html=1;whiteSpace=wrap;connectable=0;overflow=hidden;fillColor=none;top=0;left=0;bottom=0;right=0;pointerEvents=1;" vertex="1" parent="iidDDv9mAEIn2TM6ye5m-68">
          <mxGeometry x="364" width="12" height="40" as="geometry">
            <mxRectangle width="12" height="40" as="alternateBounds" />
          </mxGeometry>
        </mxCell>
        <mxCell id="iidDDv9mAEIn2TM6ye5m-105" style="shape=partialRectangle;html=1;whiteSpace=wrap;connectable=0;overflow=hidden;fillColor=none;top=0;left=0;bottom=0;right=0;pointerEvents=1;" vertex="1" parent="iidDDv9mAEIn2TM6ye5m-68">
          <mxGeometry x="376" width="11" height="40" as="geometry">
            <mxRectangle width="11" height="40" as="alternateBounds" />
          </mxGeometry>
        </mxCell>
        <mxCell id="iidDDv9mAEIn2TM6ye5m-106" style="shape=partialRectangle;html=1;whiteSpace=wrap;connectable=0;overflow=hidden;fillColor=none;top=0;left=0;bottom=0;right=0;pointerEvents=1;" vertex="1" parent="iidDDv9mAEIn2TM6ye5m-68">
          <mxGeometry x="387" width="10" height="40" as="geometry">
            <mxRectangle width="10" height="40" as="alternateBounds" />
          </mxGeometry>
        </mxCell>
        <mxCell id="iidDDv9mAEIn2TM6ye5m-107" style="shape=partialRectangle;html=1;whiteSpace=wrap;connectable=0;overflow=hidden;fillColor=none;top=0;left=0;bottom=0;right=0;pointerEvents=1;" vertex="1" parent="iidDDv9mAEIn2TM6ye5m-68">
          <mxGeometry x="397" width="11" height="40" as="geometry">
            <mxRectangle width="11" height="40" as="alternateBounds" />
          </mxGeometry>
        </mxCell>
        <mxCell id="iidDDv9mAEIn2TM6ye5m-108" style="shape=partialRectangle;html=1;whiteSpace=wrap;connectable=0;overflow=hidden;fillColor=none;top=0;left=0;bottom=0;right=0;pointerEvents=1;" vertex="1" parent="iidDDv9mAEIn2TM6ye5m-68">
          <mxGeometry x="408" width="11" height="40" as="geometry">
            <mxRectangle width="11" height="40" as="alternateBounds" />
          </mxGeometry>
        </mxCell>
        <mxCell id="iidDDv9mAEIn2TM6ye5m-109" style="shape=partialRectangle;html=1;whiteSpace=wrap;connectable=0;overflow=hidden;fillColor=none;top=0;left=0;bottom=0;right=0;pointerEvents=1;" vertex="1" parent="iidDDv9mAEIn2TM6ye5m-68">
          <mxGeometry x="419" width="11" height="40" as="geometry">
            <mxRectangle width="11" height="40" as="alternateBounds" />
          </mxGeometry>
        </mxCell>
        <mxCell id="iidDDv9mAEIn2TM6ye5m-110" style="shape=partialRectangle;html=1;whiteSpace=wrap;connectable=0;overflow=hidden;fillColor=none;top=0;left=0;bottom=0;right=0;pointerEvents=1;" vertex="1" parent="iidDDv9mAEIn2TM6ye5m-68">
          <mxGeometry x="430" width="10" height="40" as="geometry">
            <mxRectangle width="10" height="40" as="alternateBounds" />
          </mxGeometry>
        </mxCell>
        <mxCell id="iidDDv9mAEIn2TM6ye5m-111" style="shape=partialRectangle;html=1;whiteSpace=wrap;connectable=0;overflow=hidden;fillColor=none;top=0;left=0;bottom=0;right=0;pointerEvents=1;" vertex="1" parent="iidDDv9mAEIn2TM6ye5m-68">
          <mxGeometry x="440" width="12" height="40" as="geometry">
            <mxRectangle width="12" height="40" as="alternateBounds" />
          </mxGeometry>
        </mxCell>
        <mxCell id="iidDDv9mAEIn2TM6ye5m-112" style="shape=partialRectangle;html=1;whiteSpace=wrap;connectable=0;overflow=hidden;fillColor=none;top=0;left=0;bottom=0;right=0;pointerEvents=1;" vertex="1" parent="iidDDv9mAEIn2TM6ye5m-68">
          <mxGeometry x="452" width="11" height="40" as="geometry">
            <mxRectangle width="11" height="40" as="alternateBounds" />
          </mxGeometry>
        </mxCell>
        <mxCell id="iidDDv9mAEIn2TM6ye5m-113" style="shape=partialRectangle;html=1;whiteSpace=wrap;connectable=0;overflow=hidden;fillColor=none;top=0;left=0;bottom=0;right=0;pointerEvents=1;" vertex="1" parent="iidDDv9mAEIn2TM6ye5m-68">
          <mxGeometry x="463" width="11" height="40" as="geometry">
            <mxRectangle width="11" height="40" as="alternateBounds" />
          </mxGeometry>
        </mxCell>
        <mxCell id="iidDDv9mAEIn2TM6ye5m-114" style="shape=partialRectangle;html=1;whiteSpace=wrap;connectable=0;overflow=hidden;fillColor=none;top=0;left=0;bottom=0;right=0;pointerEvents=1;" vertex="1" parent="iidDDv9mAEIn2TM6ye5m-68">
          <mxGeometry x="474" width="10" height="40" as="geometry">
            <mxRectangle width="10" height="40" as="alternateBounds" />
          </mxGeometry>
        </mxCell>
        <mxCell id="iidDDv9mAEIn2TM6ye5m-115" style="shape=partialRectangle;html=1;whiteSpace=wrap;connectable=0;overflow=hidden;fillColor=none;top=0;left=0;bottom=0;right=0;pointerEvents=1;" vertex="1" parent="iidDDv9mAEIn2TM6ye5m-68">
          <mxGeometry x="484" width="11" height="40" as="geometry">
            <mxRectangle width="11" height="40" as="alternateBounds" />
          </mxGeometry>
        </mxCell>
        <mxCell id="iidDDv9mAEIn2TM6ye5m-116" style="shape=partialRectangle;html=1;whiteSpace=wrap;connectable=0;overflow=hidden;fillColor=none;top=0;left=0;bottom=0;right=0;pointerEvents=1;" vertex="1" parent="iidDDv9mAEIn2TM6ye5m-68">
          <mxGeometry x="495" width="11" height="40" as="geometry">
            <mxRectangle width="11" height="40" as="alternateBounds" />
          </mxGeometry>
        </mxCell>
        <mxCell id="iidDDv9mAEIn2TM6ye5m-117" style="shape=partialRectangle;html=1;whiteSpace=wrap;connectable=0;overflow=hidden;fillColor=none;top=0;left=0;bottom=0;right=0;pointerEvents=1;" vertex="1" parent="iidDDv9mAEIn2TM6ye5m-68">
          <mxGeometry x="506" width="12" height="40" as="geometry">
            <mxRectangle width="12" height="40" as="alternateBounds" />
          </mxGeometry>
        </mxCell>
        <mxCell id="iidDDv9mAEIn2TM6ye5m-118" style="shape=partialRectangle;html=1;whiteSpace=wrap;connectable=0;overflow=hidden;fillColor=none;top=0;left=0;bottom=0;right=0;pointerEvents=1;" vertex="1" parent="iidDDv9mAEIn2TM6ye5m-68">
          <mxGeometry x="518" width="10" height="40" as="geometry">
            <mxRectangle width="10" height="40" as="alternateBounds" />
          </mxGeometry>
        </mxCell>
        <mxCell id="iidDDv9mAEIn2TM6ye5m-119" style="shape=partialRectangle;html=1;whiteSpace=wrap;connectable=0;overflow=hidden;fillColor=none;top=0;left=0;bottom=0;right=0;pointerEvents=1;" vertex="1" parent="iidDDv9mAEIn2TM6ye5m-68">
          <mxGeometry x="528" width="11" height="40" as="geometry">
            <mxRectangle width="11" height="40" as="alternateBounds" />
          </mxGeometry>
        </mxCell>
        <mxCell id="iidDDv9mAEIn2TM6ye5m-120" style="shape=partialRectangle;html=1;whiteSpace=wrap;connectable=0;overflow=hidden;fillColor=none;top=0;left=0;bottom=0;right=0;pointerEvents=1;" vertex="1" parent="iidDDv9mAEIn2TM6ye5m-68">
          <mxGeometry x="539" width="11" height="40" as="geometry">
            <mxRectangle width="11" height="40" as="alternateBounds" />
          </mxGeometry>
        </mxCell>
        <mxCell id="iidDDv9mAEIn2TM6ye5m-121" style="shape=partialRectangle;html=1;whiteSpace=wrap;connectable=0;overflow=hidden;fillColor=none;top=0;left=0;bottom=0;right=0;pointerEvents=1;" vertex="1" parent="iidDDv9mAEIn2TM6ye5m-68">
          <mxGeometry x="550" width="11" height="40" as="geometry">
            <mxRectangle width="11" height="40" as="alternateBounds" />
          </mxGeometry>
        </mxCell>
        <mxCell id="iidDDv9mAEIn2TM6ye5m-122" style="shape=partialRectangle;html=1;whiteSpace=wrap;connectable=0;overflow=hidden;fillColor=none;top=0;left=0;bottom=0;right=0;pointerEvents=1;" vertex="1" parent="iidDDv9mAEIn2TM6ye5m-68">
          <mxGeometry x="561" width="10" height="40" as="geometry">
            <mxRectangle width="10" height="40" as="alternateBounds" />
          </mxGeometry>
        </mxCell>
        <mxCell id="iidDDv9mAEIn2TM6ye5m-123" style="shape=partialRectangle;html=1;whiteSpace=wrap;connectable=0;overflow=hidden;fillColor=none;top=0;left=0;bottom=0;right=0;pointerEvents=1;" vertex="1" parent="iidDDv9mAEIn2TM6ye5m-68">
          <mxGeometry x="571" width="12" height="40" as="geometry">
            <mxRectangle width="12" height="40" as="alternateBounds" />
          </mxGeometry>
        </mxCell>
        <mxCell id="iidDDv9mAEIn2TM6ye5m-124" style="shape=partialRectangle;html=1;whiteSpace=wrap;connectable=0;overflow=hidden;fillColor=none;top=0;left=0;bottom=0;right=0;pointerEvents=1;" vertex="1" parent="iidDDv9mAEIn2TM6ye5m-68">
          <mxGeometry x="583" width="11" height="40" as="geometry">
            <mxRectangle width="11" height="40" as="alternateBounds" />
          </mxGeometry>
        </mxCell>
        <mxCell id="iidDDv9mAEIn2TM6ye5m-125" style="shape=partialRectangle;html=1;whiteSpace=wrap;connectable=0;overflow=hidden;fillColor=none;top=0;left=0;bottom=0;right=0;pointerEvents=1;" vertex="1" parent="iidDDv9mAEIn2TM6ye5m-68">
          <mxGeometry x="594" width="11" height="40" as="geometry">
            <mxRectangle width="11" height="40" as="alternateBounds" />
          </mxGeometry>
        </mxCell>
        <mxCell id="iidDDv9mAEIn2TM6ye5m-126" style="shape=partialRectangle;html=1;whiteSpace=wrap;connectable=0;overflow=hidden;fillColor=none;top=0;left=0;bottom=0;right=0;pointerEvents=1;" vertex="1" parent="iidDDv9mAEIn2TM6ye5m-68">
          <mxGeometry x="605" width="10" height="40" as="geometry">
            <mxRectangle width="10" height="40" as="alternateBounds" />
          </mxGeometry>
        </mxCell>
        <mxCell id="iidDDv9mAEIn2TM6ye5m-127" style="shape=partialRectangle;html=1;whiteSpace=wrap;connectable=0;overflow=hidden;fillColor=none;top=0;left=0;bottom=0;right=0;pointerEvents=1;" vertex="1" parent="iidDDv9mAEIn2TM6ye5m-68">
          <mxGeometry x="615" width="11" height="40" as="geometry">
            <mxRectangle width="11" height="40" as="alternateBounds" />
          </mxGeometry>
        </mxCell>
        <mxCell id="iidDDv9mAEIn2TM6ye5m-128" style="shape=partialRectangle;html=1;whiteSpace=wrap;connectable=0;overflow=hidden;fillColor=none;top=0;left=0;bottom=0;right=0;pointerEvents=1;" vertex="1" parent="iidDDv9mAEIn2TM6ye5m-68">
          <mxGeometry x="626" width="11" height="40" as="geometry">
            <mxRectangle width="11" height="40" as="alternateBounds" />
          </mxGeometry>
        </mxCell>
        <mxCell id="iidDDv9mAEIn2TM6ye5m-129" style="shape=partialRectangle;html=1;whiteSpace=wrap;connectable=0;overflow=hidden;fillColor=none;top=0;left=0;bottom=0;right=0;pointerEvents=1;" vertex="1" parent="iidDDv9mAEIn2TM6ye5m-68">
          <mxGeometry x="637" width="12" height="40" as="geometry">
            <mxRectangle width="12" height="40" as="alternateBounds" />
          </mxGeometry>
        </mxCell>
        <mxCell id="iidDDv9mAEIn2TM6ye5m-130" style="shape=partialRectangle;html=1;whiteSpace=wrap;connectable=0;overflow=hidden;fillColor=none;top=0;left=0;bottom=0;right=0;pointerEvents=1;" vertex="1" parent="iidDDv9mAEIn2TM6ye5m-68">
          <mxGeometry x="649" width="10" height="40" as="geometry">
            <mxRectangle width="10" height="40" as="alternateBounds" />
          </mxGeometry>
        </mxCell>
        <mxCell id="iidDDv9mAEIn2TM6ye5m-131" style="shape=partialRectangle;html=1;whiteSpace=wrap;connectable=0;overflow=hidden;fillColor=none;top=0;left=0;bottom=0;right=0;pointerEvents=1;" vertex="1" parent="iidDDv9mAEIn2TM6ye5m-68">
          <mxGeometry x="659" width="11" height="40" as="geometry">
            <mxRectangle width="11" height="40" as="alternateBounds" />
          </mxGeometry>
        </mxCell>
        <mxCell id="iidDDv9mAEIn2TM6ye5m-132" value="0" style="shape=partialRectangle;html=1;whiteSpace=wrap;connectable=0;overflow=hidden;fillColor=none;top=0;left=0;bottom=0;right=0;pointerEvents=1;" vertex="1" parent="iidDDv9mAEIn2TM6ye5m-68">
          <mxGeometry x="670" width="11" height="40" as="geometry">
            <mxRectangle width="11" height="40" as="alternateBounds" />
          </mxGeometry>
        </mxCell>
        <mxCell id="iidDDv9mAEIn2TM6ye5m-133" value="" style="shape=table;startSize=0;container=1;collapsible=0;childLayout=tableLayout;" vertex="1" parent="1">
          <mxGeometry x="-781" y="310" width="60" height="40" as="geometry" />
        </mxCell>
        <mxCell id="iidDDv9mAEIn2TM6ye5m-134" value="" style="shape=tableRow;horizontal=0;startSize=0;swimlaneHead=0;swimlaneBody=0;top=0;left=0;bottom=0;right=0;collapsible=0;dropTarget=0;fillColor=none;points=[[0,0.5],[1,0.5]];portConstraint=eastwest;" vertex="1" parent="iidDDv9mAEIn2TM6ye5m-133">
          <mxGeometry width="60" height="40" as="geometry" />
        </mxCell>
        <mxCell id="iidDDv9mAEIn2TM6ye5m-135" value="Quad&lt;br&gt;Word" style="shape=partialRectangle;html=1;whiteSpace=wrap;connectable=0;overflow=hidden;fillColor=none;top=0;left=0;bottom=0;right=0;pointerEvents=1;" vertex="1" parent="iidDDv9mAEIn2TM6ye5m-134">
          <mxGeometry width="60" height="40" as="geometry">
            <mxRectangle width="60" height="40" as="alternateBounds" />
          </mxGeometry>
        </mxCell>
        <mxCell id="iidDDv9mAEIn2TM6ye5m-136" value="Tx Packet Buffer Address" style="rounded=0;whiteSpace=wrap;html=1;" vertex="1" parent="1">
          <mxGeometry x="-720" y="390" width="680" height="40" as="geometry" />
        </mxCell>
        <mxCell id="iidDDv9mAEIn2TM6ye5m-137" value="xxx" style="rounded=0;whiteSpace=wrap;html=1;" vertex="1" parent="1">
          <mxGeometry x="-720" y="430" width="590" height="40" as="geometry" />
        </mxCell>
        <mxCell id="iidDDv9mAEIn2TM6ye5m-138" value="" style="shape=table;startSize=0;container=1;collapsible=0;childLayout=tableLayout;" vertex="1" parent="1">
          <mxGeometry x="-781" y="350" width="60" height="80" as="geometry" />
        </mxCell>
        <mxCell id="iidDDv9mAEIn2TM6ye5m-139" value="" style="shape=tableRow;horizontal=0;startSize=0;swimlaneHead=0;swimlaneBody=0;top=0;left=0;bottom=0;right=0;collapsible=0;dropTarget=0;fillColor=none;points=[[0,0.5],[1,0.5]];portConstraint=eastwest;" vertex="1" parent="iidDDv9mAEIn2TM6ye5m-138">
          <mxGeometry width="60" height="80" as="geometry" />
        </mxCell>
        <mxCell id="iidDDv9mAEIn2TM6ye5m-140" value="0" style="shape=partialRectangle;html=1;whiteSpace=wrap;connectable=0;overflow=hidden;fillColor=none;top=0;left=0;bottom=0;right=0;pointerEvents=1;" vertex="1" parent="iidDDv9mAEIn2TM6ye5m-139">
          <mxGeometry width="60" height="80" as="geometry">
            <mxRectangle width="60" height="80" as="alternateBounds" />
          </mxGeometry>
        </mxCell>
        <mxCell id="iidDDv9mAEIn2TM6ye5m-141" value="" style="shape=table;startSize=0;container=1;collapsible=0;childLayout=tableLayout;" vertex="1" parent="1">
          <mxGeometry x="-781" y="430" width="60" height="80" as="geometry" />
        </mxCell>
        <mxCell id="iidDDv9mAEIn2TM6ye5m-142" value="" style="shape=tableRow;horizontal=0;startSize=0;swimlaneHead=0;swimlaneBody=0;top=0;left=0;bottom=0;right=0;collapsible=0;dropTarget=0;fillColor=none;points=[[0,0.5],[1,0.5]];portConstraint=eastwest;" vertex="1" parent="iidDDv9mAEIn2TM6ye5m-141">
          <mxGeometry width="60" height="80" as="geometry" />
        </mxCell>
        <mxCell id="iidDDv9mAEIn2TM6ye5m-143" value="1" style="shape=partialRectangle;html=1;whiteSpace=wrap;connectable=0;overflow=hidden;fillColor=none;top=0;left=0;bottom=0;right=0;pointerEvents=1;" vertex="1" parent="iidDDv9mAEIn2TM6ye5m-142">
          <mxGeometry width="60" height="80" as="geometry">
            <mxRectangle width="60" height="80" as="alternateBounds" />
          </mxGeometry>
        </mxCell>
        <mxCell id="iidDDv9mAEIn2TM6ye5m-144" value="" style="shape=table;startSize=0;container=1;collapsible=0;childLayout=tableLayout;" vertex="1" parent="1">
          <mxGeometry x="-130" y="430" width="90" height="40" as="geometry" />
        </mxCell>
        <mxCell id="iidDDv9mAEIn2TM6ye5m-145" value="" style="shape=tableRow;horizontal=0;startSize=0;swimlaneHead=0;swimlaneBody=0;top=0;left=0;bottom=0;right=0;collapsible=0;dropTarget=0;fillColor=none;points=[[0,0.5],[1,0.5]];portConstraint=eastwest;" vertex="1" parent="iidDDv9mAEIn2TM6ye5m-144">
          <mxGeometry width="90" height="40" as="geometry" />
        </mxCell>
        <mxCell id="iidDDv9mAEIn2TM6ye5m-146" value="type&lt;br&gt;(data)" style="shape=partialRectangle;html=1;whiteSpace=wrap;connectable=0;overflow=hidden;fillColor=none;top=0;left=0;bottom=0;right=0;pointerEvents=1;" vertex="1" parent="iidDDv9mAEIn2TM6ye5m-145">
          <mxGeometry width="90" height="40" as="geometry">
            <mxRectangle width="90" height="40" as="alternateBounds" />
          </mxGeometry>
        </mxCell>
      </root>
    </mxGraphModel>
  </diagram>
</mxfile>
